# xmcd CD database file
#
# Track frame offsets:
#	150
#	25311
#	45633
#	78729
#	108514
#	144870
#	170108
#	196258
#	222516
#	242619
#	286518
#	300078
#	325101
#
# Disc length: 4642 seconds
#
# Revision: 0
# Processed by: cddbd v1.5.2PL0 Copyright (c) Steve Scherf et al.
# Submitted via: CDex 2.18
#
DISCID=ac12200d
DTITLE=Jack Ingram - Ridin' High...Again
DYEAR=2019
DGENRE=Country
TTITLE0=Alright Alright Alright
TTITLE1=Don't It Make You Wanna Dance
TTITLE2=Staying Outta Jail
TTITLE3=Desperadoes Waiting For A Train
TTITLE4=Where There's A Willie
TTITLE5=Gotta Get Drunk
TTITLE6=Tin Man
TTITLE7=Down The Road Tonight
TTITLE8=Never Ending Story Of Love
TTITLE9=Sailor and The Sea
TTITLE10=Everybody Wants To Be Somebody
TTITLE11=Shooting Stars
TTITLE12=Jesus Was A Capricorn
EXTD=YEAR: 2019
EXTT0=
EXTT1=
EXTT2=
EXTT3=
EXTT4=
EXTT5=
EXTT6=
EXTT7=
EXTT8=
EXTT9=
EXTT10=
EXTT11=
EXTT12=
PLAYORDER=
